<?xml version="1.0" standalone="no"?>
<!DOCTYPE svg PUBLIC "-//W3C//DTD SVG 20010904//EN"
 "http://www.w3.org/TR/2001/REC-SVG-20010904/DTD/svg10.dtd">
<svg version="1.0" xmlns="http://www.w3.org/2000/svg"
 width="180.000000pt" height="60.000000pt" viewBox="0 0 180.000000 60.000000"
 preserveAspectRatio="xMidYMid meet">

<g transform="translate(0.000000,60.000000) scale(0.100000,-0.100000)"
fill="#000000" stroke="none">
<path d="M180 551 l-65 -6 -2 -56 -1 -55 81 -27 c67 -22 83 -24 89 -13 5 10
39 16 105 21 54 4 107 12 118 17 17 7 17 8 -5 4 -14 -2 -69 -8 -122 -11 l-98
-7 0 25 c0 14 5 29 10 32 6 4 56 11 110 17 55 6 100 15 100 19 0 4 -28 17 -62
28 -63 21 -120 24 -258 12z"/>
<path d="M1198 463 c23 -2 61 -2 85 0 23 2 4 4 -43 4 -47 0 -66 -2 -42 -4z"/>
<path d="M1537 463 c18 -2 50 -2 70 0 21 2 7 4 -32 4 -38 0 -55 -2 -38 -4z"/>
<path d="M1393 305 c1 -60 2 -82 4 -47 4 67 11 75 37 40 16 -23 16 -23 6 -1
-5 12 -11 43 -11 70 -1 26 -3 40 -6 31 -2 -10 -8 -18 -13 -18 -5 0 -11 8 -13
18 -3 9 -4 -32 -4 -93z"/>
<path d="M1142 308 c2 -85 2 -87 5 -23 4 89 8 101 28 85 9 -8 15 -37 18 -88 3
-75 3 -74 5 21 l2 97 -30 0 -30 0 2 -92z"/>
<path d="M1272 293 c1 -60 3 -83 5 -53 7 121 25 130 34 17 5 -68 6 -66 7 36
l2 107 -25 0 -25 0 2 -107z"/>
<path d="M1500 365 l0 -35 103 2 c101 2 101 2 20 5 -57 3 -85 8 -94 19 -20 24
1 33 91 37 l85 3 -102 2 -103 2 0 -35z"/>
<path d="M110 368 c0 -38 -12 -68 -25 -68 -16 0 -20 -12 -34 -94 -19 -107 -19
-108 49 -135 33 -13 63 -22 65 -19 3 3 13 58 23 122 14 98 19 116 34 116 10 0
18 -7 18 -15 0 -9 9 -15 23 -15 12 0 33 -3 47 -5 22 -5 23 -5 4 4 -15 6 -21
19 -22 44 -1 29 3 36 21 40 12 2 9 3 -8 2 -16 -2 -64 8 -105 21 -92 29 -90 29
-90 2z m-17 -195 c-3 -21 -10 -47 -14 -58 -7 -18 -8 -18 -9 5 -1 23 -2 24 -11
5 -7 -15 -8 -10 -4 20 2 22 5 46 5 53 0 6 9 12 19 12 17 0 19 -5 14 -37z"/>
<path d="M72 175 c0 -16 2 -22 5 -12 2 9 2 23 0 30 -3 6 -5 -1 -5 -18z"/>
<path d="M393 353 c9 -2 25 -2 35 0 9 3 1 5 -18 5 -19 0 -27 -2 -17 -5z"/>
<path d="M443 313 c9 -2 25 -2 35 0 9 3 1 5 -18 5 -19 0 -27 -2 -17 -5z"/>
<path d="M353 303 c9 -2 25 -2 35 0 9 3 1 5 -18 5 -19 0 -27 -2 -17 -5z"/>
<path d="M433 273 c9 -2 25 -2 35 0 9 3 1 5 -18 5 -19 0 -27 -2 -17 -5z"/>
<path d="M358 263 c12 -2 30 -2 40 0 9 3 -1 5 -23 4 -22 0 -30 -2 -17 -4z"/>
<path d="M1562 263 c61 -3 90 -8 99 -19 21 -26 -2 -33 -111 -37 l-105 -3 118
-2 117 -2 0 35 0 35 -102 -2 -103 -2 87 -3z"/>
<path d="M790 218 c0 -16 12 -18 128 -16 l127 2 -120 3 c-80 3 -122 8 -127 16
-5 8 -8 7 -8 -5z"/>
<path d="M1056 202 c-4 -13 -5 -26 -2 -29 10 -11 18 4 14 29 l-4 23 -8 -23z"/>
<path d="M348 203 c7 -3 16 -2 19 1 4 3 -2 6 -13 5 -11 0 -14 -3 -6 -6z"/>
<path d="M252 170 c0 -19 2 -27 5 -17 2 9 2 25 0 35 -3 9 -5 1 -5 -18z"/>
<path d="M368 173 c7 -3 16 -2 19 1 4 3 -2 6 -13 5 -11 0 -14 -3 -6 -6z"/>
<path d="M1533 133 c20 -2 54 -2 75 0 20 2 3 4 -38 4 -41 0 -58 -2 -37 -4z"/>
<path d="M425 120 c-34 -6 -36 -7 -10 -8 17 0 48 3 70 7 33 7 35 9 10 8 -16 0
-48 -3 -70 -7z"/>
<path d="M260 92 c0 -17 4 -33 9 -36 4 -3 6 6 3 19 -3 20 -1 24 11 19 8 -3 18
-1 22 5 3 6 2 11 -4 11 -5 0 -16 3 -25 6 -12 5 -16 -1 -16 -24z"/>
<path d="M333 103 c9 -2 25 -2 35 0 9 3 1 5 -18 5 -19 0 -27 -2 -17 -5z"/>
</g>
</svg>
